<svg xmlns="http://www.w3.org/2000/svg" viewBox="0 0 32 32">
  <defs>
    <linearGradient id="bg" x1="0%" y1="0%" x2="100%" y2="100%">
      <stop offset="0%" style="stop-color:#16a34a"/>
      <stop offset="100%" style="stop-color:#22c55e"/>
    </linearGradient>
  </defs>

  <!-- Background -->
  <rect width="32" height="32" rx="6" fill="url(#bg)"/>

  <!-- Wheat stalks -->
  <g fill="#fbbf24" stroke="#f59e0b" stroke-width="0.5">
    <!-- Left stalk -->
    <line x1="10" y1="24" x2="10" y2="12" stroke="#15803d" stroke-width="1"/>
    <ellipse cx="9.5" cy="12" rx="1" ry="1.5"/>
    <ellipse cx="10.5" cy="13" rx="1" ry="1.5"/>
    <ellipse cx="9.5" cy="14" rx="1" ry="1.5"/>
    <ellipse cx="10.5" cy="15" rx="1" ry="1.5"/>

    <!-- Center stalk -->
    <line x1="16" y1="25" x2="16" y2="10" stroke="#15803d" stroke-width="1"/>
    <ellipse cx="15.5" cy="10" rx="1" ry="1.5"/>
    <ellipse cx="16.5" cy="11" rx="1" ry="1.5"/>
    <ellipse cx="15.5" cy="12" rx="1" ry="1.5"/>
    <ellipse cx="16.5" cy="13" rx="1" ry="1.5"/>
    <ellipse cx="15.5" cy="14" rx="1" ry="1.5"/>

    <!-- Right stalk -->
    <line x1="22" y1="24" x2="22" y2="12" stroke="#15803d" stroke-width="1"/>
    <ellipse cx="21.5" cy="12" rx="1" ry="1.5"/>
    <ellipse cx="22.5" cy="13" rx="1" ry="1.5"/>
    <ellipse cx="21.5" cy="14" rx="1" ry="1.5"/>
    <ellipse cx="22.5" cy="15" rx="1" ry="1.5"/>
  </g>

  <!-- Title text -->
  <text x="16" y="28" text-anchor="middle" fill="white" font-family="Arial, sans-serif" font-size="3" font-weight="bold">KS</text>
</svg>
